G04 (created by PCBNEW (2013-07-07 BZR 4022)-stable) date 2/20/2015 2:37:17 PM*
%MOIN*%
G04 Gerber Fmt 3.4, Leading zero omitted, Abs format*
%FSLAX34Y34*%
G01*
G70*
G90*
G04 APERTURE LIST*
%ADD10C,0.00590551*%
%ADD11C,0.0047*%
%ADD12C,0.005*%
%ADD13C,0.008*%
G04 APERTURE END LIST*
G54D10*
X13214Y-12041D02*
G75*
G03X13214Y-12041I-39J0D01*
G74*
G01*
X13214Y-13340D02*
X12585Y-13340D01*
X12585Y-12159D02*
X13214Y-12159D01*
G54D11*
X7156Y-13797D02*
X7156Y-14072D01*
X7156Y-13403D02*
X7156Y-13128D01*
X6644Y-13797D02*
X6644Y-14072D01*
X6644Y-13128D02*
X6644Y-13403D01*
X6650Y-14072D02*
X7150Y-14072D01*
X7150Y-13128D02*
X6650Y-13128D01*
X25244Y-17803D02*
X25244Y-17528D01*
X25244Y-18197D02*
X25244Y-18472D01*
X25756Y-17803D02*
X25756Y-17528D01*
X25756Y-18472D02*
X25756Y-18197D01*
X25750Y-17528D02*
X25250Y-17528D01*
X25250Y-18472D02*
X25750Y-18472D01*
X21558Y-15279D02*
X21752Y-15085D01*
X21279Y-15558D02*
X21085Y-15752D01*
X21920Y-15641D02*
X22114Y-15447D01*
X21447Y-16114D02*
X21641Y-15920D01*
X22110Y-15443D02*
X21756Y-15089D01*
X21089Y-15756D02*
X21443Y-16110D01*
X24144Y-17803D02*
X24144Y-17528D01*
X24144Y-18197D02*
X24144Y-18472D01*
X24656Y-17803D02*
X24656Y-17528D01*
X24656Y-18472D02*
X24656Y-18197D01*
X24650Y-17528D02*
X24150Y-17528D01*
X24150Y-18472D02*
X24650Y-18472D01*
X22920Y-13158D02*
X23114Y-13352D01*
X22641Y-12879D02*
X22447Y-12685D01*
X22558Y-13520D02*
X22752Y-13714D01*
X22085Y-13047D02*
X22279Y-13241D01*
X22756Y-13710D02*
X23110Y-13356D01*
X22443Y-12689D02*
X22089Y-13043D01*
X25241Y-12320D02*
X25047Y-12514D01*
X25520Y-12041D02*
X25714Y-11847D01*
X24879Y-11958D02*
X24685Y-12152D01*
X25352Y-11485D02*
X25158Y-11679D01*
X24689Y-12156D02*
X25043Y-12510D01*
X25710Y-11843D02*
X25356Y-11489D01*
G54D12*
X6650Y-11750D02*
X6650Y-12650D01*
X6650Y-12650D02*
X7150Y-12650D01*
X7150Y-12650D02*
X7150Y-11750D01*
X7150Y-11750D02*
X6650Y-11750D01*
G54D11*
X17644Y-14953D02*
X17644Y-14678D01*
X17644Y-15347D02*
X17644Y-15622D01*
X18156Y-14953D02*
X18156Y-14678D01*
X18156Y-15622D02*
X18156Y-15347D01*
X18150Y-14678D02*
X17650Y-14678D01*
X17650Y-15622D02*
X18150Y-15622D01*
G54D12*
X18150Y-13700D02*
X18150Y-12800D01*
X18150Y-12800D02*
X17650Y-12800D01*
X17650Y-12800D02*
X17650Y-13700D01*
X17650Y-13700D02*
X18150Y-13700D01*
G54D11*
X30644Y-12403D02*
X30644Y-12128D01*
X30644Y-12797D02*
X30644Y-13072D01*
X31156Y-12403D02*
X31156Y-12128D01*
X31156Y-13072D02*
X31156Y-12797D01*
X31150Y-12128D02*
X30650Y-12128D01*
X30650Y-13072D02*
X31150Y-13072D01*
X29544Y-12403D02*
X29544Y-12128D01*
X29544Y-12797D02*
X29544Y-13072D01*
X30056Y-12403D02*
X30056Y-12128D01*
X30056Y-13072D02*
X30056Y-12797D01*
X30050Y-12128D02*
X29550Y-12128D01*
X29550Y-13072D02*
X30050Y-13072D01*
X28444Y-12403D02*
X28444Y-12128D01*
X28444Y-12797D02*
X28444Y-13072D01*
X28956Y-12403D02*
X28956Y-12128D01*
X28956Y-13072D02*
X28956Y-12797D01*
X28950Y-12128D02*
X28450Y-12128D01*
X28450Y-13072D02*
X28950Y-13072D01*
X27344Y-12403D02*
X27344Y-12128D01*
X27344Y-12797D02*
X27344Y-13072D01*
X27856Y-12403D02*
X27856Y-12128D01*
X27856Y-13072D02*
X27856Y-12797D01*
X27850Y-12128D02*
X27350Y-12128D01*
X27350Y-13072D02*
X27850Y-13072D01*
G54D12*
X7900Y-6800D02*
X7000Y-6800D01*
X7000Y-6800D02*
X7000Y-7300D01*
X7000Y-7300D02*
X7900Y-7300D01*
X7900Y-7300D02*
X7900Y-6800D01*
G54D13*
X13795Y-11261D02*
X13795Y-11585D01*
X13776Y-11623D01*
X13757Y-11642D01*
X13719Y-11661D01*
X13642Y-11661D01*
X13604Y-11642D01*
X13585Y-11623D01*
X13566Y-11585D01*
X13566Y-11261D01*
X13395Y-11642D02*
X13338Y-11661D01*
X13242Y-11661D01*
X13204Y-11642D01*
X13185Y-11623D01*
X13166Y-11585D01*
X13166Y-11547D01*
X13185Y-11509D01*
X13204Y-11490D01*
X13242Y-11471D01*
X13319Y-11452D01*
X13357Y-11433D01*
X13376Y-11414D01*
X13395Y-11376D01*
X13395Y-11338D01*
X13376Y-11300D01*
X13357Y-11280D01*
X13319Y-11261D01*
X13223Y-11261D01*
X13166Y-11280D01*
X12861Y-11452D02*
X12804Y-11471D01*
X12785Y-11490D01*
X12766Y-11528D01*
X12766Y-11585D01*
X12785Y-11623D01*
X12804Y-11642D01*
X12842Y-11661D01*
X12995Y-11661D01*
X12995Y-11261D01*
X12861Y-11261D01*
X12823Y-11280D01*
X12804Y-11300D01*
X12785Y-11338D01*
X12785Y-11376D01*
X12804Y-11414D01*
X12823Y-11433D01*
X12861Y-11452D01*
X12995Y-11452D01*
X12404Y-11661D02*
X12595Y-11661D01*
X12595Y-11261D01*
X12042Y-11623D02*
X12061Y-11642D01*
X12119Y-11661D01*
X12157Y-11661D01*
X12214Y-11642D01*
X12252Y-11604D01*
X12271Y-11566D01*
X12290Y-11490D01*
X12290Y-11433D01*
X12271Y-11357D01*
X12252Y-11319D01*
X12214Y-11280D01*
X12157Y-11261D01*
X12119Y-11261D01*
X12061Y-11280D01*
X12042Y-11300D01*
X11700Y-11261D02*
X11776Y-11261D01*
X11814Y-11280D01*
X11833Y-11300D01*
X11871Y-11357D01*
X11890Y-11433D01*
X11890Y-11585D01*
X11871Y-11623D01*
X11852Y-11642D01*
X11814Y-11661D01*
X11738Y-11661D01*
X11700Y-11642D01*
X11680Y-11623D01*
X11661Y-11585D01*
X11661Y-11490D01*
X11680Y-11452D01*
X11700Y-11433D01*
X11738Y-11414D01*
X11814Y-11414D01*
X11852Y-11433D01*
X11871Y-11452D01*
X11890Y-11490D01*
X11490Y-11509D02*
X11185Y-11509D01*
X11014Y-11300D02*
X10995Y-11280D01*
X10957Y-11261D01*
X10861Y-11261D01*
X10823Y-11280D01*
X10804Y-11300D01*
X10785Y-11338D01*
X10785Y-11376D01*
X10804Y-11433D01*
X11033Y-11661D01*
X10785Y-11661D01*
X7766Y-13423D02*
X7785Y-13442D01*
X7842Y-13461D01*
X7880Y-13461D01*
X7938Y-13442D01*
X7976Y-13404D01*
X7995Y-13366D01*
X8014Y-13290D01*
X8014Y-13233D01*
X7995Y-13157D01*
X7976Y-13119D01*
X7938Y-13080D01*
X7880Y-13061D01*
X7842Y-13061D01*
X7785Y-13080D01*
X7766Y-13100D01*
X7576Y-13461D02*
X7499Y-13461D01*
X7461Y-13442D01*
X7442Y-13423D01*
X7404Y-13366D01*
X7385Y-13290D01*
X7385Y-13138D01*
X7404Y-13100D01*
X7423Y-13080D01*
X7461Y-13061D01*
X7538Y-13061D01*
X7576Y-13080D01*
X7595Y-13100D01*
X7614Y-13138D01*
X7614Y-13233D01*
X7595Y-13271D01*
X7576Y-13290D01*
X7538Y-13309D01*
X7461Y-13309D01*
X7423Y-13290D01*
X7404Y-13271D01*
X7385Y-13233D01*
X25659Y-19029D02*
X25678Y-19010D01*
X25697Y-18953D01*
X25697Y-18915D01*
X25678Y-18857D01*
X25640Y-18819D01*
X25602Y-18800D01*
X25525Y-18781D01*
X25468Y-18781D01*
X25392Y-18800D01*
X25354Y-18819D01*
X25316Y-18857D01*
X25297Y-18915D01*
X25297Y-18953D01*
X25316Y-19010D01*
X25335Y-19029D01*
X25297Y-19162D02*
X25297Y-19429D01*
X25697Y-19257D01*
X22234Y-16140D02*
X22261Y-16140D01*
X22315Y-16113D01*
X22342Y-16086D01*
X22369Y-16032D01*
X22369Y-15978D01*
X22355Y-15938D01*
X22315Y-15871D01*
X22275Y-15830D01*
X22207Y-15790D01*
X22167Y-15776D01*
X22113Y-15776D01*
X22059Y-15803D01*
X22032Y-15830D01*
X22005Y-15884D01*
X22005Y-15911D01*
X21722Y-16140D02*
X21857Y-16005D01*
X22005Y-16126D01*
X21978Y-16126D01*
X21938Y-16140D01*
X21871Y-16207D01*
X21857Y-16248D01*
X21857Y-16275D01*
X21871Y-16315D01*
X21938Y-16382D01*
X21978Y-16396D01*
X22005Y-16396D01*
X22046Y-16382D01*
X22113Y-16315D01*
X22126Y-16275D01*
X22126Y-16248D01*
X24523Y-19033D02*
X24542Y-19014D01*
X24561Y-18957D01*
X24561Y-18919D01*
X24542Y-18861D01*
X24504Y-18823D01*
X24466Y-18804D01*
X24390Y-18785D01*
X24333Y-18785D01*
X24257Y-18804D01*
X24219Y-18823D01*
X24180Y-18861D01*
X24161Y-18919D01*
X24161Y-18957D01*
X24180Y-19014D01*
X24200Y-19033D01*
X24161Y-19376D02*
X24161Y-19300D01*
X24180Y-19261D01*
X24200Y-19242D01*
X24257Y-19204D01*
X24333Y-19185D01*
X24485Y-19185D01*
X24523Y-19204D01*
X24542Y-19223D01*
X24561Y-19261D01*
X24561Y-19338D01*
X24542Y-19376D01*
X24523Y-19395D01*
X24485Y-19414D01*
X24390Y-19414D01*
X24352Y-19395D01*
X24333Y-19376D01*
X24314Y-19338D01*
X24314Y-19261D01*
X24333Y-19223D01*
X24352Y-19204D01*
X24390Y-19185D01*
X21959Y-13934D02*
X21959Y-13961D01*
X21986Y-14015D01*
X22013Y-14042D01*
X22067Y-14069D01*
X22121Y-14069D01*
X22161Y-14055D01*
X22228Y-14015D01*
X22269Y-13975D01*
X22309Y-13907D01*
X22323Y-13867D01*
X22323Y-13813D01*
X22296Y-13759D01*
X22269Y-13732D01*
X22215Y-13705D01*
X22188Y-13705D01*
X21878Y-13530D02*
X21690Y-13719D01*
X22053Y-13490D02*
X21919Y-13759D01*
X21744Y-13584D01*
X24834Y-11540D02*
X24861Y-11540D01*
X24915Y-11513D01*
X24942Y-11486D01*
X24969Y-11432D01*
X24969Y-11378D01*
X24955Y-11338D01*
X24915Y-11271D01*
X24875Y-11230D01*
X24807Y-11190D01*
X24767Y-11176D01*
X24713Y-11176D01*
X24659Y-11203D01*
X24632Y-11230D01*
X24605Y-11284D01*
X24605Y-11311D01*
X24484Y-11378D02*
X24309Y-11553D01*
X24511Y-11567D01*
X24471Y-11607D01*
X24457Y-11648D01*
X24457Y-11675D01*
X24471Y-11715D01*
X24538Y-11782D01*
X24578Y-11796D01*
X24605Y-11796D01*
X24646Y-11782D01*
X24726Y-11702D01*
X24740Y-11661D01*
X24740Y-11634D01*
X7766Y-12761D02*
X7899Y-12571D01*
X7995Y-12761D02*
X7995Y-12361D01*
X7842Y-12361D01*
X7804Y-12380D01*
X7785Y-12400D01*
X7766Y-12438D01*
X7766Y-12495D01*
X7785Y-12533D01*
X7804Y-12552D01*
X7842Y-12571D01*
X7995Y-12571D01*
X7633Y-12361D02*
X7385Y-12361D01*
X7519Y-12514D01*
X7461Y-12514D01*
X7423Y-12533D01*
X7404Y-12552D01*
X7385Y-12590D01*
X7385Y-12685D01*
X7404Y-12723D01*
X7423Y-12742D01*
X7461Y-12761D01*
X7576Y-12761D01*
X7614Y-12742D01*
X7633Y-12723D01*
X18157Y-16173D02*
X18176Y-16192D01*
X18233Y-16211D01*
X18271Y-16211D01*
X18328Y-16192D01*
X18366Y-16154D01*
X18385Y-16116D01*
X18404Y-16040D01*
X18404Y-15983D01*
X18385Y-15907D01*
X18366Y-15869D01*
X18328Y-15830D01*
X18271Y-15811D01*
X18233Y-15811D01*
X18176Y-15830D01*
X18157Y-15850D01*
X17776Y-16211D02*
X18004Y-16211D01*
X17890Y-16211D02*
X17890Y-15811D01*
X17928Y-15869D01*
X17966Y-15907D01*
X18004Y-15926D01*
X17395Y-16211D02*
X17623Y-16211D01*
X17509Y-16211D02*
X17509Y-15811D01*
X17547Y-15869D01*
X17585Y-15907D01*
X17623Y-15926D01*
X17966Y-14311D02*
X18099Y-14121D01*
X18195Y-14311D02*
X18195Y-13911D01*
X18042Y-13911D01*
X18004Y-13930D01*
X17985Y-13950D01*
X17966Y-13988D01*
X17966Y-14045D01*
X17985Y-14083D01*
X18004Y-14102D01*
X18042Y-14121D01*
X18195Y-14121D01*
X17623Y-13911D02*
X17699Y-13911D01*
X17738Y-13930D01*
X17757Y-13950D01*
X17795Y-14007D01*
X17814Y-14083D01*
X17814Y-14235D01*
X17795Y-14273D01*
X17776Y-14292D01*
X17738Y-14311D01*
X17661Y-14311D01*
X17623Y-14292D01*
X17604Y-14273D01*
X17585Y-14235D01*
X17585Y-14140D01*
X17604Y-14102D01*
X17623Y-14083D01*
X17661Y-14064D01*
X17738Y-14064D01*
X17776Y-14083D01*
X17795Y-14102D01*
X17814Y-14140D01*
X31023Y-11092D02*
X31042Y-11073D01*
X31061Y-11016D01*
X31061Y-10978D01*
X31042Y-10921D01*
X31004Y-10883D01*
X30966Y-10864D01*
X30890Y-10845D01*
X30833Y-10845D01*
X30757Y-10864D01*
X30719Y-10883D01*
X30680Y-10921D01*
X30661Y-10978D01*
X30661Y-11016D01*
X30680Y-11073D01*
X30700Y-11092D01*
X31061Y-11473D02*
X31061Y-11245D01*
X31061Y-11359D02*
X30661Y-11359D01*
X30719Y-11321D01*
X30757Y-11283D01*
X30776Y-11245D01*
X30661Y-11816D02*
X30661Y-11740D01*
X30680Y-11702D01*
X30700Y-11683D01*
X30757Y-11645D01*
X30833Y-11626D01*
X30985Y-11626D01*
X31023Y-11645D01*
X31042Y-11664D01*
X31061Y-11702D01*
X31061Y-11778D01*
X31042Y-11816D01*
X31023Y-11835D01*
X30985Y-11854D01*
X30890Y-11854D01*
X30852Y-11835D01*
X30833Y-11816D01*
X30814Y-11778D01*
X30814Y-11702D01*
X30833Y-11664D01*
X30852Y-11645D01*
X30890Y-11626D01*
X29973Y-11092D02*
X29992Y-11073D01*
X30011Y-11016D01*
X30011Y-10978D01*
X29992Y-10921D01*
X29954Y-10883D01*
X29916Y-10864D01*
X29840Y-10845D01*
X29783Y-10845D01*
X29707Y-10864D01*
X29669Y-10883D01*
X29630Y-10921D01*
X29611Y-10978D01*
X29611Y-11016D01*
X29630Y-11073D01*
X29650Y-11092D01*
X30011Y-11473D02*
X30011Y-11245D01*
X30011Y-11359D02*
X29611Y-11359D01*
X29669Y-11321D01*
X29707Y-11283D01*
X29726Y-11245D01*
X29611Y-11607D02*
X29611Y-11873D01*
X30011Y-11702D01*
X28823Y-11092D02*
X28842Y-11073D01*
X28861Y-11016D01*
X28861Y-10978D01*
X28842Y-10921D01*
X28804Y-10883D01*
X28766Y-10864D01*
X28690Y-10845D01*
X28633Y-10845D01*
X28557Y-10864D01*
X28519Y-10883D01*
X28480Y-10921D01*
X28461Y-10978D01*
X28461Y-11016D01*
X28480Y-11073D01*
X28500Y-11092D01*
X28861Y-11473D02*
X28861Y-11245D01*
X28861Y-11359D02*
X28461Y-11359D01*
X28519Y-11321D01*
X28557Y-11283D01*
X28576Y-11245D01*
X28595Y-11816D02*
X28861Y-11816D01*
X28442Y-11721D02*
X28728Y-11626D01*
X28728Y-11873D01*
X27723Y-11092D02*
X27742Y-11073D01*
X27761Y-11016D01*
X27761Y-10978D01*
X27742Y-10921D01*
X27704Y-10883D01*
X27666Y-10864D01*
X27590Y-10845D01*
X27533Y-10845D01*
X27457Y-10864D01*
X27419Y-10883D01*
X27380Y-10921D01*
X27361Y-10978D01*
X27361Y-11016D01*
X27380Y-11073D01*
X27400Y-11092D01*
X27761Y-11473D02*
X27761Y-11245D01*
X27761Y-11359D02*
X27361Y-11359D01*
X27419Y-11321D01*
X27457Y-11283D01*
X27476Y-11245D01*
X27361Y-11835D02*
X27361Y-11645D01*
X27552Y-11626D01*
X27533Y-11645D01*
X27514Y-11683D01*
X27514Y-11778D01*
X27533Y-11816D01*
X27552Y-11835D01*
X27590Y-11854D01*
X27685Y-11854D01*
X27723Y-11835D01*
X27742Y-11816D01*
X27761Y-11778D01*
X27761Y-11683D01*
X27742Y-11645D01*
X27723Y-11626D01*
X7516Y-7911D02*
X7649Y-7721D01*
X7745Y-7911D02*
X7745Y-7511D01*
X7592Y-7511D01*
X7554Y-7530D01*
X7535Y-7550D01*
X7516Y-7588D01*
X7516Y-7645D01*
X7535Y-7683D01*
X7554Y-7702D01*
X7592Y-7721D01*
X7745Y-7721D01*
X7383Y-7511D02*
X7116Y-7511D01*
X7288Y-7911D01*
M02*
