G04 (created by PCBNEW (2013-07-07 BZR 4022)-stable) date 2/20/2015 2:37:17 PM*
%MOIN*%
G04 Gerber Fmt 3.4, Leading zero omitted, Abs format*
%FSLAX34Y34*%
G01*
G70*
G90*
G04 APERTURE LIST*
%ADD10C,0.00590551*%
%ADD11R,0.0906X0.0197*%
%ADD12R,0.0984X0.0787*%
%ADD13C,0.048*%
%ADD14C,0.0787402*%
%ADD15R,0.025X0.045*%
%ADD16R,0.07X0.07*%
%ADD17C,0.07*%
%ADD18C,0.11811*%
%ADD19C,0.099*%
%ADD20R,0.06X0.06*%
%ADD21C,0.06*%
%ADD22R,0.0748031X0.0748031*%
%ADD23C,0.0708661*%
%ADD24C,0.12*%
%ADD25C,0.17*%
%ADD26R,0.0314X0.0314*%
%ADD27C,0.035*%
%ADD28C,0.065*%
%ADD29C,0.01*%
%ADD30C,0.04*%
%ADD31C,0.02*%
%ADD32C,0.025*%
G04 APERTURE END LIST*
G54D10*
G54D11*
X9258Y-12270D03*
X9258Y-12585D03*
X9258Y-12900D03*
X9258Y-13215D03*
X9258Y-13530D03*
G54D12*
X9219Y-11148D03*
X7054Y-11148D03*
X9219Y-14652D03*
X7054Y-14652D03*
G54D13*
X8235Y-12034D03*
X8235Y-13766D03*
G54D14*
X35779Y-12114D03*
X33220Y-12114D03*
X35779Y-13885D03*
X33220Y-13885D03*
G54D10*
G36*
X20791Y-20090D02*
X21109Y-20408D01*
X20932Y-20585D01*
X20614Y-20267D01*
X20791Y-20090D01*
X20791Y-20090D01*
G37*
G36*
X20367Y-20514D02*
X20685Y-20832D01*
X20508Y-21009D01*
X20190Y-20691D01*
X20367Y-20514D01*
X20367Y-20514D01*
G37*
G36*
X18891Y-18290D02*
X19209Y-18608D01*
X19032Y-18785D01*
X18714Y-18467D01*
X18891Y-18290D01*
X18891Y-18290D01*
G37*
G36*
X18467Y-18714D02*
X18785Y-19032D01*
X18608Y-19209D01*
X18290Y-18891D01*
X18467Y-18714D01*
X18467Y-18714D01*
G37*
G36*
X29358Y-18109D02*
X29040Y-17791D01*
X29217Y-17614D01*
X29535Y-17932D01*
X29358Y-18109D01*
X29358Y-18109D01*
G37*
G36*
X29782Y-17685D02*
X29464Y-17367D01*
X29641Y-17190D01*
X29959Y-17508D01*
X29782Y-17685D01*
X29782Y-17685D01*
G37*
G36*
X30808Y-17459D02*
X30490Y-17141D01*
X30667Y-16964D01*
X30985Y-17282D01*
X30808Y-17459D01*
X30808Y-17459D01*
G37*
G36*
X31232Y-17035D02*
X30914Y-16717D01*
X31091Y-16540D01*
X31409Y-16858D01*
X31232Y-17035D01*
X31232Y-17035D01*
G37*
G54D15*
X35200Y-15000D03*
X35800Y-15000D03*
G54D10*
G36*
X19591Y-21190D02*
X19909Y-21508D01*
X19732Y-21685D01*
X19414Y-21367D01*
X19591Y-21190D01*
X19591Y-21190D01*
G37*
G36*
X19167Y-21614D02*
X19485Y-21932D01*
X19308Y-22109D01*
X18990Y-21791D01*
X19167Y-21614D01*
X19167Y-21614D01*
G37*
G54D16*
X38000Y-7000D03*
G54D17*
X37000Y-7000D03*
X36000Y-7000D03*
X35000Y-7000D03*
X34000Y-7000D03*
X33000Y-7000D03*
X32000Y-7000D03*
X31000Y-7000D03*
X30000Y-7000D03*
X29000Y-7000D03*
X28000Y-7000D03*
X27000Y-7000D03*
X26000Y-7000D03*
X25000Y-7000D03*
X24000Y-7000D03*
X23000Y-7000D03*
X22000Y-7000D03*
X21000Y-7000D03*
X20000Y-7000D03*
X19000Y-7000D03*
X18000Y-7000D03*
X17000Y-7000D03*
X16000Y-7000D03*
X15000Y-7000D03*
X14000Y-7000D03*
X13000Y-7000D03*
X12000Y-7000D03*
X11000Y-7000D03*
X10000Y-7000D03*
X9000Y-7000D03*
G54D16*
X38000Y-24000D03*
G54D17*
X37000Y-24000D03*
X36000Y-24000D03*
X35000Y-24000D03*
X34000Y-24000D03*
X33000Y-24000D03*
X32000Y-24000D03*
X31000Y-24000D03*
X30000Y-24000D03*
X29000Y-24000D03*
X28000Y-24000D03*
X27000Y-24000D03*
X26000Y-24000D03*
X25000Y-24000D03*
X24000Y-24000D03*
X23000Y-24000D03*
X22000Y-24000D03*
X21000Y-24000D03*
X20000Y-24000D03*
X19000Y-24000D03*
X18000Y-24000D03*
X17000Y-24000D03*
X16000Y-24000D03*
X15000Y-24000D03*
X14000Y-24000D03*
X13000Y-24000D03*
X12000Y-24000D03*
X11000Y-24000D03*
X10000Y-24000D03*
X9000Y-24000D03*
G54D18*
X11681Y-18000D03*
X9318Y-18000D03*
X10500Y-19850D03*
G54D19*
X7547Y-18000D03*
G54D20*
X40000Y-12500D03*
G54D21*
X40000Y-13500D03*
X39000Y-12500D03*
X39000Y-13500D03*
X38000Y-12500D03*
X38000Y-13500D03*
G54D22*
X34000Y-18700D03*
G54D23*
X34000Y-17700D03*
X34000Y-16700D03*
G54D10*
G36*
X20344Y-19940D02*
X20066Y-19662D01*
X20762Y-18966D01*
X21040Y-19244D01*
X20344Y-19940D01*
X20344Y-19940D01*
G37*
G36*
X18042Y-21953D02*
X17346Y-21257D01*
X19016Y-19587D01*
X19712Y-20283D01*
X18042Y-21953D01*
X18042Y-21953D01*
G37*
G36*
X19637Y-19233D02*
X19359Y-18955D01*
X20055Y-18259D01*
X20333Y-18537D01*
X19637Y-19233D01*
X19637Y-19233D01*
G37*
G54D24*
X14800Y-18200D03*
X14800Y-16630D03*
X14800Y-15050D03*
G54D25*
X8000Y-21500D03*
X39000Y-9500D03*
X39000Y-21500D03*
X8000Y-9500D03*
G54D15*
X32400Y-20600D03*
X33000Y-20600D03*
G54D14*
X19179Y-13264D03*
X16620Y-13264D03*
X19179Y-15035D03*
X16620Y-15035D03*
G54D15*
X36400Y-10400D03*
X35800Y-10400D03*
X36600Y-15000D03*
X37200Y-15000D03*
G54D10*
G36*
X30158Y-18909D02*
X29840Y-18591D01*
X30017Y-18414D01*
X30335Y-18732D01*
X30158Y-18909D01*
X30158Y-18909D01*
G37*
G36*
X30582Y-18485D02*
X30264Y-18167D01*
X30441Y-17990D01*
X30759Y-18308D01*
X30582Y-18485D01*
X30582Y-18485D01*
G37*
G54D15*
X36400Y-9500D03*
X35800Y-9500D03*
G54D10*
G36*
X28594Y-14433D02*
X28707Y-14546D01*
X28289Y-14964D01*
X28176Y-14851D01*
X28594Y-14433D01*
X28594Y-14433D01*
G37*
G36*
X28371Y-14210D02*
X28484Y-14323D01*
X28066Y-14741D01*
X27953Y-14628D01*
X28371Y-14210D01*
X28371Y-14210D01*
G37*
G36*
X28148Y-13988D02*
X28261Y-14101D01*
X27844Y-14518D01*
X27731Y-14405D01*
X28148Y-13988D01*
X28148Y-13988D01*
G37*
G36*
X27925Y-13765D02*
X28038Y-13878D01*
X27621Y-14296D01*
X27508Y-14183D01*
X27925Y-13765D01*
X27925Y-13765D01*
G37*
G36*
X27703Y-13542D02*
X27816Y-13655D01*
X27398Y-14073D01*
X27285Y-13960D01*
X27703Y-13542D01*
X27703Y-13542D01*
G37*
G36*
X27480Y-13320D02*
X27593Y-13433D01*
X27175Y-13850D01*
X27062Y-13737D01*
X27480Y-13320D01*
X27480Y-13320D01*
G37*
G36*
X27257Y-13097D02*
X27370Y-13210D01*
X26953Y-13627D01*
X26840Y-13514D01*
X27257Y-13097D01*
X27257Y-13097D01*
G37*
G36*
X27035Y-12874D02*
X27148Y-12987D01*
X26730Y-13405D01*
X26617Y-13292D01*
X27035Y-12874D01*
X27035Y-12874D01*
G37*
G36*
X26812Y-12651D02*
X26925Y-12764D01*
X26507Y-13182D01*
X26394Y-13069D01*
X26812Y-12651D01*
X26812Y-12651D01*
G37*
G36*
X26589Y-12429D02*
X26702Y-12542D01*
X26285Y-12959D01*
X26172Y-12846D01*
X26589Y-12429D01*
X26589Y-12429D01*
G37*
G36*
X26366Y-12206D02*
X26479Y-12319D01*
X26062Y-12737D01*
X25949Y-12624D01*
X26366Y-12206D01*
X26366Y-12206D01*
G37*
G36*
X26144Y-11983D02*
X26257Y-12096D01*
X25839Y-12514D01*
X25726Y-12401D01*
X26144Y-11983D01*
X26144Y-11983D01*
G37*
G36*
X25921Y-11761D02*
X26034Y-11874D01*
X25616Y-12291D01*
X25503Y-12178D01*
X25921Y-11761D01*
X25921Y-11761D01*
G37*
G36*
X25698Y-11538D02*
X25811Y-11651D01*
X25394Y-12068D01*
X25281Y-11955D01*
X25698Y-11538D01*
X25698Y-11538D01*
G37*
G36*
X25476Y-11315D02*
X25589Y-11428D01*
X25171Y-11846D01*
X25058Y-11733D01*
X25476Y-11315D01*
X25476Y-11315D01*
G37*
G36*
X25253Y-11092D02*
X25366Y-11205D01*
X24948Y-11623D01*
X24835Y-11510D01*
X25253Y-11092D01*
X25253Y-11092D01*
G37*
G36*
X23946Y-11092D02*
X24364Y-11510D01*
X24251Y-11623D01*
X23833Y-11205D01*
X23946Y-11092D01*
X23946Y-11092D01*
G37*
G36*
X23723Y-11315D02*
X24141Y-11733D01*
X24028Y-11846D01*
X23610Y-11428D01*
X23723Y-11315D01*
X23723Y-11315D01*
G37*
G36*
X23501Y-11538D02*
X23918Y-11955D01*
X23805Y-12068D01*
X23388Y-11651D01*
X23501Y-11538D01*
X23501Y-11538D01*
G37*
G36*
X23278Y-11761D02*
X23696Y-12178D01*
X23583Y-12291D01*
X23165Y-11874D01*
X23278Y-11761D01*
X23278Y-11761D01*
G37*
G36*
X23055Y-11983D02*
X23473Y-12401D01*
X23360Y-12514D01*
X22942Y-12096D01*
X23055Y-11983D01*
X23055Y-11983D01*
G37*
G36*
X22833Y-12206D02*
X23250Y-12624D01*
X23137Y-12737D01*
X22720Y-12319D01*
X22833Y-12206D01*
X22833Y-12206D01*
G37*
G36*
X22610Y-12429D02*
X23027Y-12846D01*
X22914Y-12959D01*
X22497Y-12542D01*
X22610Y-12429D01*
X22610Y-12429D01*
G37*
G36*
X22387Y-12651D02*
X22805Y-13069D01*
X22692Y-13182D01*
X22274Y-12764D01*
X22387Y-12651D01*
X22387Y-12651D01*
G37*
G36*
X22164Y-12874D02*
X22582Y-13292D01*
X22469Y-13405D01*
X22051Y-12987D01*
X22164Y-12874D01*
X22164Y-12874D01*
G37*
G36*
X21942Y-13097D02*
X22359Y-13514D01*
X22246Y-13627D01*
X21829Y-13210D01*
X21942Y-13097D01*
X21942Y-13097D01*
G37*
G36*
X21719Y-13320D02*
X22137Y-13737D01*
X22024Y-13850D01*
X21606Y-13433D01*
X21719Y-13320D01*
X21719Y-13320D01*
G37*
G36*
X21496Y-13542D02*
X21914Y-13960D01*
X21801Y-14073D01*
X21383Y-13655D01*
X21496Y-13542D01*
X21496Y-13542D01*
G37*
G36*
X21274Y-13765D02*
X21691Y-14183D01*
X21578Y-14296D01*
X21161Y-13878D01*
X21274Y-13765D01*
X21274Y-13765D01*
G37*
G36*
X21051Y-13988D02*
X21468Y-14405D01*
X21355Y-14518D01*
X20938Y-14101D01*
X21051Y-13988D01*
X21051Y-13988D01*
G37*
G36*
X20828Y-14210D02*
X21246Y-14628D01*
X21133Y-14741D01*
X20715Y-14323D01*
X20828Y-14210D01*
X20828Y-14210D01*
G37*
G36*
X20605Y-14433D02*
X21023Y-14851D01*
X20910Y-14964D01*
X20492Y-14546D01*
X20605Y-14433D01*
X20605Y-14433D01*
G37*
G36*
X20910Y-15435D02*
X21023Y-15548D01*
X20605Y-15966D01*
X20492Y-15853D01*
X20910Y-15435D01*
X20910Y-15435D01*
G37*
G36*
X21133Y-15658D02*
X21246Y-15771D01*
X20828Y-16189D01*
X20715Y-16076D01*
X21133Y-15658D01*
X21133Y-15658D01*
G37*
G36*
X21355Y-15881D02*
X21468Y-15994D01*
X21051Y-16411D01*
X20938Y-16298D01*
X21355Y-15881D01*
X21355Y-15881D01*
G37*
G36*
X21578Y-16103D02*
X21691Y-16216D01*
X21274Y-16634D01*
X21161Y-16521D01*
X21578Y-16103D01*
X21578Y-16103D01*
G37*
G36*
X21801Y-16326D02*
X21914Y-16439D01*
X21496Y-16857D01*
X21383Y-16744D01*
X21801Y-16326D01*
X21801Y-16326D01*
G37*
G36*
X22024Y-16549D02*
X22137Y-16662D01*
X21719Y-17079D01*
X21606Y-16966D01*
X22024Y-16549D01*
X22024Y-16549D01*
G37*
G36*
X22246Y-16772D02*
X22359Y-16885D01*
X21942Y-17302D01*
X21829Y-17189D01*
X22246Y-16772D01*
X22246Y-16772D01*
G37*
G36*
X22469Y-16994D02*
X22582Y-17107D01*
X22164Y-17525D01*
X22051Y-17412D01*
X22469Y-16994D01*
X22469Y-16994D01*
G37*
G36*
X22692Y-17217D02*
X22805Y-17330D01*
X22387Y-17748D01*
X22274Y-17635D01*
X22692Y-17217D01*
X22692Y-17217D01*
G37*
G36*
X22914Y-17440D02*
X23027Y-17553D01*
X22610Y-17970D01*
X22497Y-17857D01*
X22914Y-17440D01*
X22914Y-17440D01*
G37*
G36*
X23137Y-17662D02*
X23250Y-17775D01*
X22833Y-18193D01*
X22720Y-18080D01*
X23137Y-17662D01*
X23137Y-17662D01*
G37*
G36*
X23360Y-17885D02*
X23473Y-17998D01*
X23055Y-18416D01*
X22942Y-18303D01*
X23360Y-17885D01*
X23360Y-17885D01*
G37*
G36*
X23583Y-18108D02*
X23696Y-18221D01*
X23278Y-18638D01*
X23165Y-18525D01*
X23583Y-18108D01*
X23583Y-18108D01*
G37*
G36*
X23805Y-18331D02*
X23918Y-18444D01*
X23501Y-18861D01*
X23388Y-18748D01*
X23805Y-18331D01*
X23805Y-18331D01*
G37*
G36*
X24028Y-18553D02*
X24141Y-18666D01*
X23723Y-19084D01*
X23610Y-18971D01*
X24028Y-18553D01*
X24028Y-18553D01*
G37*
G36*
X24251Y-18776D02*
X24364Y-18889D01*
X23946Y-19307D01*
X23833Y-19194D01*
X24251Y-18776D01*
X24251Y-18776D01*
G37*
G36*
X24948Y-18776D02*
X25366Y-19194D01*
X25253Y-19307D01*
X24835Y-18889D01*
X24948Y-18776D01*
X24948Y-18776D01*
G37*
G36*
X25171Y-18553D02*
X25589Y-18971D01*
X25476Y-19084D01*
X25058Y-18666D01*
X25171Y-18553D01*
X25171Y-18553D01*
G37*
G36*
X25394Y-18331D02*
X25811Y-18748D01*
X25698Y-18861D01*
X25281Y-18444D01*
X25394Y-18331D01*
X25394Y-18331D01*
G37*
G36*
X25616Y-18108D02*
X26034Y-18525D01*
X25921Y-18638D01*
X25503Y-18221D01*
X25616Y-18108D01*
X25616Y-18108D01*
G37*
G36*
X25839Y-17885D02*
X26257Y-18303D01*
X26144Y-18416D01*
X25726Y-17998D01*
X25839Y-17885D01*
X25839Y-17885D01*
G37*
G36*
X26062Y-17662D02*
X26479Y-18080D01*
X26366Y-18193D01*
X25949Y-17775D01*
X26062Y-17662D01*
X26062Y-17662D01*
G37*
G36*
X26285Y-17440D02*
X26702Y-17857D01*
X26589Y-17970D01*
X26172Y-17553D01*
X26285Y-17440D01*
X26285Y-17440D01*
G37*
G36*
X26507Y-17217D02*
X26925Y-17635D01*
X26812Y-17748D01*
X26394Y-17330D01*
X26507Y-17217D01*
X26507Y-17217D01*
G37*
G36*
X26730Y-16994D02*
X27148Y-17412D01*
X27035Y-17525D01*
X26617Y-17107D01*
X26730Y-16994D01*
X26730Y-16994D01*
G37*
G36*
X26953Y-16772D02*
X27370Y-17189D01*
X27257Y-17302D01*
X26840Y-16885D01*
X26953Y-16772D01*
X26953Y-16772D01*
G37*
G36*
X27175Y-16549D02*
X27593Y-16966D01*
X27480Y-17079D01*
X27062Y-16662D01*
X27175Y-16549D01*
X27175Y-16549D01*
G37*
G36*
X27398Y-16326D02*
X27816Y-16744D01*
X27703Y-16857D01*
X27285Y-16439D01*
X27398Y-16326D01*
X27398Y-16326D01*
G37*
G36*
X27621Y-16103D02*
X28038Y-16521D01*
X27925Y-16634D01*
X27508Y-16216D01*
X27621Y-16103D01*
X27621Y-16103D01*
G37*
G36*
X27844Y-15881D02*
X28261Y-16298D01*
X28148Y-16411D01*
X27731Y-15994D01*
X27844Y-15881D01*
X27844Y-15881D01*
G37*
G36*
X28066Y-15658D02*
X28484Y-16076D01*
X28371Y-16189D01*
X27953Y-15771D01*
X28066Y-15658D01*
X28066Y-15658D01*
G37*
G36*
X28289Y-15435D02*
X28707Y-15853D01*
X28594Y-15966D01*
X28176Y-15548D01*
X28289Y-15435D01*
X28289Y-15435D01*
G37*
G54D26*
X34295Y-20600D03*
X33705Y-20600D03*
X7795Y-7000D03*
X7205Y-7000D03*
G54D20*
X40000Y-24000D03*
G54D21*
X39000Y-24000D03*
G54D20*
X36000Y-23000D03*
G54D21*
X37000Y-23000D03*
G54D20*
X11000Y-23000D03*
G54D21*
X10000Y-23000D03*
G54D20*
X7000Y-24000D03*
G54D21*
X8000Y-24000D03*
G54D20*
X32000Y-23000D03*
G54D21*
X33000Y-23000D03*
X34000Y-23000D03*
X35000Y-23000D03*
G54D20*
X15000Y-23000D03*
G54D21*
X14000Y-23000D03*
X13000Y-23000D03*
X12000Y-23000D03*
G54D27*
X24600Y-12600D03*
X23400Y-13900D03*
X22200Y-15000D03*
G54D28*
X32750Y-15100D03*
X31650Y-16150D03*
G54D27*
X25200Y-17150D03*
X24350Y-17250D03*
X11800Y-12750D03*
X31700Y-12900D03*
X26650Y-14200D03*
X17650Y-17450D03*
X14750Y-13000D03*
X14750Y-12550D03*
X26500Y-23400D03*
X14150Y-12750D03*
X14500Y-12000D03*
X25200Y-12800D03*
X23800Y-17300D03*
X26600Y-18900D03*
X19900Y-15500D03*
X21500Y-12100D03*
X29700Y-19000D03*
X32700Y-19300D03*
X18100Y-19350D03*
X20050Y-21100D03*
G54D28*
X10900Y-13700D03*
G54D27*
X27850Y-18400D03*
X6850Y-7750D03*
X11100Y-13000D03*
X11100Y-12500D03*
X8200Y-14700D03*
X8100Y-11200D03*
G54D28*
X36900Y-11600D03*
G54D27*
X27600Y-18000D03*
X33800Y-14900D03*
G54D29*
X25323Y-11580D02*
X24600Y-12304D01*
X24600Y-12304D02*
X24600Y-12600D01*
X22317Y-13139D02*
X23077Y-13900D01*
X23077Y-13900D02*
X23400Y-13900D01*
X22200Y-15150D02*
X22200Y-15000D01*
X22200Y-15150D02*
X21203Y-16146D01*
X31162Y-16787D02*
X31650Y-16300D01*
G54D30*
X34000Y-16350D02*
X32750Y-15100D01*
X34000Y-16350D02*
X34000Y-16700D01*
G54D29*
X31650Y-16300D02*
X31650Y-16150D01*
X34295Y-20600D02*
X35500Y-20600D01*
X36000Y-21100D02*
X36000Y-23000D01*
X35500Y-20600D02*
X36000Y-21100D01*
X25991Y-18150D02*
X25200Y-17358D01*
X25200Y-17358D02*
X25200Y-17150D01*
X23430Y-18373D02*
X24350Y-17454D01*
X24350Y-17454D02*
X24350Y-17250D01*
X36600Y-15000D02*
X36200Y-15000D01*
X36200Y-15000D02*
X35800Y-15000D01*
X38300Y-14800D02*
X39300Y-14800D01*
X40000Y-14100D02*
X40000Y-13500D01*
X39300Y-14800D02*
X40000Y-14100D01*
X36200Y-15700D02*
X36200Y-15000D01*
X35200Y-16700D02*
X36200Y-15700D01*
X34000Y-16700D02*
X35200Y-16700D01*
X11800Y-12750D02*
X11800Y-12050D01*
X10130Y-12270D02*
X9258Y-12270D01*
X10600Y-11800D02*
X10130Y-12270D01*
X11550Y-11800D02*
X10600Y-11800D01*
X11800Y-12050D02*
X11550Y-11800D01*
X30800Y-12350D02*
X34250Y-8900D01*
X30800Y-12900D02*
X30800Y-12350D01*
X38000Y-7900D02*
X38000Y-7000D01*
X37000Y-8900D02*
X38000Y-7900D01*
X34250Y-8900D02*
X37000Y-8900D01*
X31700Y-12900D02*
X30800Y-12900D01*
X27996Y-16146D02*
X28399Y-16550D01*
X30800Y-15150D02*
X30800Y-12900D01*
X29400Y-16550D02*
X30800Y-15150D01*
X28399Y-16550D02*
X29400Y-16550D01*
X27328Y-13585D02*
X28900Y-12013D01*
X30000Y-10400D02*
X30000Y-7000D01*
X28900Y-11500D02*
X30000Y-10400D01*
X28900Y-12013D02*
X28900Y-11500D01*
X27328Y-13585D02*
X26713Y-14200D01*
X26713Y-14200D02*
X26650Y-14200D01*
X9000Y-7000D02*
X7795Y-7000D01*
X19400Y-12500D02*
X16250Y-12500D01*
X19850Y-13345D02*
X19850Y-12950D01*
X19850Y-12950D02*
X19400Y-12500D01*
X20980Y-14476D02*
X19850Y-13345D01*
X11900Y-9900D02*
X9000Y-7000D01*
X13650Y-9900D02*
X11900Y-9900D01*
X16250Y-12500D02*
X13650Y-9900D01*
X17100Y-21300D02*
X18600Y-22800D01*
X17650Y-17450D02*
X17100Y-18000D01*
X17100Y-18000D02*
X17100Y-21300D01*
X19800Y-22800D02*
X21000Y-24000D01*
X18600Y-22800D02*
X19800Y-22800D01*
X22539Y-17482D02*
X22022Y-18000D01*
X19100Y-17450D02*
X17650Y-17450D01*
X19650Y-18000D02*
X19100Y-17450D01*
X22022Y-18000D02*
X19650Y-18000D01*
X20758Y-15701D02*
X20751Y-15701D01*
X14850Y-12900D02*
X14750Y-13000D01*
X15150Y-12900D02*
X14850Y-12900D01*
X16450Y-14200D02*
X15150Y-12900D01*
X19600Y-14200D02*
X16450Y-14200D01*
X19850Y-14450D02*
X19600Y-14200D01*
X19850Y-15000D02*
X19850Y-14450D01*
X20200Y-15350D02*
X19850Y-15000D01*
X20400Y-15350D02*
X20200Y-15350D01*
X20751Y-15701D02*
X20400Y-15350D01*
X14750Y-13000D02*
X14750Y-13000D01*
X20758Y-14698D02*
X20350Y-15100D01*
X19700Y-14000D02*
X16500Y-14000D01*
X16500Y-14000D02*
X15200Y-12700D01*
X15200Y-12700D02*
X14900Y-12700D01*
X14900Y-12700D02*
X14750Y-12550D01*
X20050Y-14350D02*
X19700Y-14000D01*
X20050Y-14900D02*
X20050Y-14350D01*
X20250Y-15100D02*
X20050Y-14900D01*
X20350Y-15100D02*
X20250Y-15100D01*
X14750Y-12550D02*
X14750Y-12550D01*
X25546Y-18596D02*
X26500Y-19549D01*
X26500Y-19549D02*
X26500Y-23400D01*
X14150Y-12750D02*
X14500Y-12400D01*
X14500Y-12400D02*
X14500Y-12000D01*
X25546Y-11803D02*
X25200Y-12150D01*
X25200Y-12150D02*
X25200Y-12800D01*
X23208Y-18150D02*
X23800Y-17558D01*
X23800Y-17558D02*
X23800Y-17300D01*
X26295Y-18900D02*
X26600Y-18900D01*
X26295Y-18900D02*
X25769Y-18373D01*
X20604Y-16300D02*
X20200Y-16300D01*
X20200Y-16300D02*
X19900Y-16000D01*
X19900Y-16000D02*
X19900Y-15500D01*
X20604Y-16300D02*
X20980Y-15923D01*
X22539Y-12917D02*
X21722Y-12100D01*
X21722Y-12100D02*
X21500Y-12100D01*
X29750Y-19000D02*
X29700Y-19000D01*
X29750Y-19000D02*
X30087Y-18662D01*
X32400Y-20600D02*
X32400Y-19600D01*
X32400Y-19600D02*
X32700Y-19300D01*
X29287Y-17862D02*
X30087Y-18662D01*
X27550Y-16591D02*
X28508Y-17550D01*
X28975Y-17550D02*
X29287Y-17862D01*
X28508Y-17550D02*
X28975Y-17550D01*
X18537Y-18962D02*
X18150Y-19350D01*
X18150Y-19350D02*
X18100Y-19350D01*
X19662Y-21437D02*
X20000Y-21100D01*
X20100Y-21100D02*
X20050Y-21100D01*
X20100Y-21100D02*
X20437Y-20762D01*
X20000Y-21100D02*
X20050Y-21100D01*
X38000Y-13500D02*
X38000Y-13600D01*
X37200Y-14400D02*
X37200Y-15000D01*
X38000Y-13600D02*
X37200Y-14400D01*
X38000Y-13500D02*
X38500Y-13000D01*
X37400Y-10400D02*
X36400Y-10400D01*
X38500Y-11500D02*
X37400Y-10400D01*
X38500Y-13000D02*
X38500Y-11500D01*
X36400Y-10400D02*
X36400Y-9500D01*
G54D31*
X9258Y-13530D02*
X10730Y-13530D01*
X10730Y-13530D02*
X10900Y-13700D01*
G54D29*
X27328Y-16814D02*
X28900Y-18386D01*
X28900Y-22900D02*
X30000Y-24000D01*
X28900Y-18386D02*
X28900Y-22900D01*
X25101Y-19041D02*
X25000Y-19142D01*
X25000Y-19142D02*
X25000Y-24000D01*
X25101Y-11358D02*
X22000Y-8257D01*
X22000Y-8257D02*
X22000Y-7000D01*
X26300Y-11200D02*
X23000Y-7900D01*
X26300Y-11495D02*
X26300Y-11200D01*
X25769Y-12026D02*
X26300Y-11495D01*
X23000Y-7900D02*
X23000Y-7000D01*
X26882Y-13139D02*
X28000Y-12022D01*
X28000Y-12022D02*
X28000Y-7000D01*
X27105Y-13362D02*
X28600Y-11868D01*
X29000Y-11000D02*
X29000Y-7000D01*
X28600Y-11400D02*
X29000Y-11000D01*
X28600Y-11868D02*
X28600Y-11400D01*
X26660Y-12917D02*
X27150Y-12427D01*
X27150Y-7150D02*
X27000Y-7000D01*
X27150Y-12427D02*
X27150Y-7150D01*
X26437Y-12694D02*
X26950Y-12181D01*
X26000Y-9900D02*
X26000Y-7000D01*
X26950Y-10850D02*
X26000Y-9900D01*
X26950Y-12181D02*
X26950Y-10850D01*
X26700Y-11000D02*
X25000Y-9300D01*
X26700Y-11986D02*
X26700Y-11000D01*
X26214Y-12471D02*
X26700Y-11986D01*
X25000Y-9300D02*
X25000Y-7000D01*
X26500Y-11100D02*
X24000Y-8600D01*
X26500Y-11741D02*
X26500Y-11100D01*
X25991Y-12249D02*
X26500Y-11741D01*
X24000Y-8600D02*
X24000Y-7000D01*
X25323Y-18819D02*
X25700Y-19195D01*
X26000Y-22500D02*
X26000Y-24000D01*
X25700Y-22200D02*
X26000Y-22500D01*
X25700Y-19195D02*
X25700Y-22200D01*
X22985Y-17928D02*
X22113Y-18800D01*
X21207Y-18800D02*
X20553Y-19453D01*
X22113Y-18800D02*
X21207Y-18800D01*
X20800Y-20350D02*
X20862Y-20337D01*
X20553Y-19453D02*
X20350Y-19657D01*
X20350Y-19900D02*
X20800Y-20350D01*
X20350Y-19657D02*
X20350Y-19900D01*
X27577Y-18400D02*
X26660Y-17482D01*
X27850Y-18400D02*
X27577Y-18400D01*
X7205Y-7000D02*
X7205Y-7395D01*
X7205Y-7395D02*
X6850Y-7750D01*
X22762Y-17705D02*
X22218Y-18250D01*
X20342Y-18250D02*
X19846Y-18746D01*
X22218Y-18250D02*
X20342Y-18250D01*
X19846Y-18746D02*
X19642Y-18950D01*
X19000Y-18550D02*
X18962Y-18537D01*
X19400Y-18950D02*
X19000Y-18550D01*
X19642Y-18950D02*
X19400Y-18950D01*
X33000Y-20600D02*
X33705Y-20600D01*
X26214Y-17928D02*
X27000Y-18713D01*
X27000Y-18713D02*
X27000Y-24000D01*
X11000Y-12900D02*
X9258Y-12900D01*
X11100Y-13000D02*
X11000Y-12900D01*
X11015Y-12585D02*
X9258Y-12585D01*
X11100Y-12500D02*
X11015Y-12585D01*
X8200Y-14700D02*
X7800Y-14300D01*
X7800Y-11500D02*
X8100Y-11200D01*
X7800Y-14300D02*
X7800Y-11500D01*
X7054Y-14652D02*
X9219Y-14652D01*
X7054Y-11148D02*
X9219Y-11148D01*
X8152Y-14652D02*
X7054Y-14652D01*
X8200Y-14700D02*
X8152Y-14652D01*
X8048Y-11148D02*
X7054Y-11148D01*
X8100Y-11200D02*
X8048Y-11148D01*
X7106Y-11200D02*
X7054Y-11148D01*
X7102Y-14700D02*
X7054Y-14652D01*
X23208Y-12249D02*
X21758Y-10800D01*
X20800Y-10800D02*
X17000Y-7000D01*
X21758Y-10800D02*
X20800Y-10800D01*
X26437Y-17705D02*
X27300Y-18568D01*
X27300Y-23300D02*
X28000Y-24000D01*
X27300Y-18568D02*
X27300Y-23300D01*
X30737Y-17212D02*
X30112Y-17837D01*
X29712Y-17437D02*
X30112Y-17837D01*
X30112Y-17837D02*
X30512Y-18237D01*
X27773Y-16369D02*
X28404Y-17000D01*
X29274Y-17000D02*
X29712Y-17437D01*
X28404Y-17000D02*
X29274Y-17000D01*
X22985Y-12471D02*
X21513Y-11000D01*
X20000Y-11000D02*
X16000Y-7000D01*
X21513Y-11000D02*
X20000Y-11000D01*
X22762Y-12694D02*
X21268Y-11200D01*
X19200Y-11200D02*
X15000Y-7000D01*
X21268Y-11200D02*
X19200Y-11200D01*
X30550Y-12300D02*
X34150Y-8700D01*
X28645Y-16350D02*
X29250Y-16350D01*
X29250Y-16350D02*
X30550Y-15050D01*
X30550Y-15050D02*
X30550Y-12300D01*
X28219Y-15923D02*
X28645Y-16350D01*
X37000Y-7800D02*
X37000Y-7000D01*
X36100Y-8700D02*
X37000Y-7800D01*
X34150Y-8700D02*
X36100Y-8700D01*
X35000Y-7000D02*
X33000Y-9000D01*
X30150Y-12990D02*
X30150Y-11850D01*
X30150Y-11850D02*
X33000Y-9000D01*
X30150Y-12990D02*
X28441Y-14698D01*
X32000Y-9700D02*
X34000Y-7700D01*
X29950Y-12745D02*
X29950Y-11750D01*
X29950Y-11750D02*
X32000Y-9700D01*
X28219Y-14476D02*
X29950Y-12745D01*
X34000Y-7700D02*
X34000Y-7000D01*
X31000Y-10400D02*
X33000Y-8400D01*
X29750Y-12499D02*
X29750Y-11650D01*
X29750Y-11650D02*
X31000Y-10400D01*
X27996Y-14253D02*
X29750Y-12499D01*
X33000Y-8400D02*
X33000Y-7000D01*
X27105Y-17037D02*
X28600Y-18531D01*
X28600Y-23600D02*
X29000Y-24000D01*
X28600Y-18531D02*
X28600Y-23600D01*
X27773Y-14030D02*
X29500Y-12304D01*
X32000Y-9100D02*
X32000Y-7000D01*
X29500Y-11600D02*
X32000Y-9100D01*
X29500Y-12304D02*
X29500Y-11600D01*
X27550Y-13808D02*
X29200Y-12158D01*
X31000Y-9800D02*
X31000Y-7000D01*
X29200Y-11600D02*
X31000Y-9800D01*
X29200Y-12158D02*
X29200Y-11600D01*
X23430Y-12026D02*
X22004Y-10600D01*
X21600Y-10600D02*
X18000Y-7000D01*
X22004Y-10600D02*
X21600Y-10600D01*
X19450Y-12250D02*
X16450Y-12250D01*
X20050Y-13099D02*
X20050Y-12850D01*
X21203Y-14253D02*
X20050Y-13099D01*
X20050Y-12850D02*
X19450Y-12250D01*
X12650Y-9650D02*
X10000Y-7000D01*
X13800Y-9650D02*
X12650Y-9650D01*
X16450Y-12250D02*
X13800Y-9650D01*
X16900Y-21400D02*
X18500Y-23000D01*
X16900Y-21400D02*
X16900Y-17450D01*
X22317Y-17260D02*
X21777Y-17800D01*
X20100Y-17800D02*
X21777Y-17800D01*
X19300Y-17000D02*
X20100Y-17800D01*
X17350Y-17000D02*
X19300Y-17000D01*
X16900Y-17450D02*
X17350Y-17000D01*
X19000Y-23000D02*
X20000Y-24000D01*
X18500Y-23000D02*
X19000Y-23000D01*
X23653Y-11803D02*
X22249Y-10400D01*
X22249Y-10249D02*
X19000Y-7000D01*
X22249Y-10400D02*
X22249Y-10249D01*
X19550Y-12050D02*
X16600Y-12050D01*
X20250Y-12854D02*
X20250Y-12750D01*
X20250Y-12750D02*
X19550Y-12050D01*
X21426Y-14030D02*
X20250Y-12854D01*
X13400Y-9400D02*
X11000Y-7000D01*
X13950Y-9400D02*
X13400Y-9400D01*
X16600Y-12050D02*
X13950Y-9400D01*
X19000Y-24000D02*
X19000Y-23800D01*
X21531Y-17600D02*
X22094Y-17037D01*
X16700Y-17350D02*
X16700Y-21500D01*
X17250Y-16800D02*
X16700Y-17350D01*
X19400Y-16800D02*
X17250Y-16800D01*
X20200Y-17600D02*
X19400Y-16800D01*
X21531Y-17600D02*
X20200Y-17600D01*
X19000Y-23800D02*
X16700Y-21500D01*
X19237Y-21862D02*
X18375Y-21000D01*
X18350Y-21000D02*
X18079Y-21220D01*
X18375Y-21000D02*
X18350Y-21000D01*
X35800Y-9500D02*
X35200Y-9500D01*
X34500Y-10200D02*
X34500Y-13885D01*
X35200Y-9500D02*
X34500Y-10200D01*
G54D30*
X35779Y-13885D02*
X34500Y-13885D01*
X34500Y-13885D02*
X33220Y-13885D01*
X35779Y-13885D02*
X36414Y-13885D01*
X36900Y-13400D02*
X36900Y-11600D01*
X36414Y-13885D02*
X36900Y-13400D01*
G54D29*
X26882Y-17260D02*
X27600Y-17977D01*
X27600Y-17977D02*
X27600Y-18000D01*
X35200Y-15000D02*
X33900Y-15000D01*
X33900Y-15000D02*
X33800Y-14900D01*
X35800Y-10400D02*
X35800Y-12093D01*
X35800Y-12093D02*
X35779Y-12114D01*
X23653Y-18596D02*
X22000Y-20249D01*
X22000Y-20249D02*
X22000Y-24000D01*
X34000Y-8500D02*
X35400Y-8500D01*
X28840Y-16100D02*
X29200Y-16100D01*
X29200Y-16100D02*
X30350Y-14950D01*
X30350Y-14950D02*
X30350Y-12150D01*
X30350Y-12150D02*
X34000Y-8500D01*
X28441Y-15701D02*
X28840Y-16100D01*
X36000Y-7900D02*
X36000Y-7000D01*
X35400Y-8500D02*
X36000Y-7900D01*
X22094Y-13362D02*
X20181Y-11450D01*
X18450Y-11450D02*
X14000Y-7000D01*
X20181Y-11450D02*
X18450Y-11450D01*
X16000Y-24000D02*
X16000Y-21450D01*
X16100Y-21350D02*
X16100Y-17050D01*
X20950Y-16850D02*
X20350Y-16850D01*
X20350Y-16850D02*
X19650Y-16200D01*
X19650Y-16200D02*
X16950Y-16200D01*
X16950Y-16200D02*
X16100Y-17050D01*
X20950Y-16850D02*
X21426Y-16369D01*
X16000Y-21450D02*
X16100Y-21350D01*
X24098Y-11358D02*
X21000Y-8259D01*
X21000Y-8259D02*
X21000Y-7000D01*
X19943Y-11656D02*
X17656Y-11656D01*
X17656Y-11656D02*
X13000Y-7000D01*
X21871Y-13585D02*
X19943Y-11656D01*
X19943Y-11656D02*
X19936Y-11650D01*
X16300Y-21450D02*
X16300Y-23300D01*
X16300Y-17150D02*
X17050Y-16400D01*
X17050Y-16400D02*
X19550Y-16400D01*
X19550Y-16400D02*
X20350Y-17150D01*
X20350Y-17150D02*
X21100Y-17150D01*
X21649Y-16591D02*
X21100Y-17150D01*
X16300Y-21450D02*
X16300Y-17150D01*
X16300Y-23300D02*
X17000Y-24000D01*
X23876Y-11580D02*
X20000Y-7704D01*
X20000Y-7704D02*
X20000Y-7000D01*
X19691Y-11850D02*
X16850Y-11850D01*
X21649Y-13808D02*
X19691Y-11850D01*
X16850Y-11850D02*
X12000Y-7000D01*
X18000Y-24000D02*
X18000Y-23050D01*
X16500Y-21550D02*
X16500Y-17250D01*
X21350Y-17350D02*
X21871Y-16814D01*
X20250Y-17350D02*
X21350Y-17350D01*
X19500Y-16600D02*
X20250Y-17350D01*
X17150Y-16600D02*
X19500Y-16600D01*
X16500Y-17250D02*
X17150Y-16600D01*
X18000Y-23050D02*
X16500Y-21550D01*
X23876Y-18819D02*
X23000Y-19695D01*
X23000Y-19695D02*
X23000Y-24000D01*
X24098Y-19041D02*
X24000Y-19140D01*
X24000Y-19140D02*
X24000Y-24000D01*
G54D10*
G36*
X40375Y-24375D02*
X40125Y-24375D01*
X40125Y-21277D01*
X39954Y-20863D01*
X39638Y-20546D01*
X39224Y-20375D01*
X38777Y-20374D01*
X38363Y-20545D01*
X38046Y-20861D01*
X37875Y-21275D01*
X37874Y-21722D01*
X38045Y-22136D01*
X38361Y-22453D01*
X38775Y-22624D01*
X39222Y-22625D01*
X39636Y-22454D01*
X39953Y-22138D01*
X40124Y-21724D01*
X40125Y-21277D01*
X40125Y-24375D01*
X39438Y-24375D01*
X39487Y-24326D01*
X39574Y-24114D01*
X39575Y-23886D01*
X39487Y-23674D01*
X39326Y-23512D01*
X39114Y-23425D01*
X38886Y-23424D01*
X38674Y-23512D01*
X38512Y-23673D01*
X38425Y-23885D01*
X38424Y-24113D01*
X38512Y-24325D01*
X38561Y-24375D01*
X37509Y-24375D01*
X37529Y-24354D01*
X37624Y-24124D01*
X37625Y-23876D01*
X37530Y-23646D01*
X37354Y-23470D01*
X37346Y-23466D01*
X37487Y-23326D01*
X37574Y-23114D01*
X37575Y-22886D01*
X37487Y-22674D01*
X37326Y-22512D01*
X37114Y-22425D01*
X36886Y-22424D01*
X36674Y-22512D01*
X36512Y-22673D01*
X36425Y-22885D01*
X36424Y-23113D01*
X36512Y-23325D01*
X36653Y-23466D01*
X36646Y-23469D01*
X36470Y-23645D01*
X36375Y-23875D01*
X36374Y-24123D01*
X36469Y-24353D01*
X36491Y-24375D01*
X35509Y-24375D01*
X35529Y-24354D01*
X35624Y-24124D01*
X35625Y-23876D01*
X35530Y-23646D01*
X35354Y-23470D01*
X35346Y-23466D01*
X35487Y-23326D01*
X35574Y-23114D01*
X35575Y-22886D01*
X35487Y-22674D01*
X35326Y-22512D01*
X35114Y-22425D01*
X34886Y-22424D01*
X34674Y-22512D01*
X34512Y-22673D01*
X34425Y-22885D01*
X34424Y-23113D01*
X34512Y-23325D01*
X34653Y-23466D01*
X34646Y-23469D01*
X34470Y-23645D01*
X34375Y-23875D01*
X34374Y-24123D01*
X34469Y-24353D01*
X34491Y-24375D01*
X33509Y-24375D01*
X33529Y-24354D01*
X33624Y-24124D01*
X33625Y-23876D01*
X33530Y-23646D01*
X33354Y-23470D01*
X33346Y-23466D01*
X33487Y-23326D01*
X33574Y-23114D01*
X33575Y-22886D01*
X33487Y-22674D01*
X33326Y-22512D01*
X33114Y-22425D01*
X32886Y-22424D01*
X32674Y-22512D01*
X32512Y-22673D01*
X32425Y-22885D01*
X32424Y-23113D01*
X32512Y-23325D01*
X32653Y-23466D01*
X32646Y-23469D01*
X32470Y-23645D01*
X32375Y-23875D01*
X32374Y-24123D01*
X32469Y-24353D01*
X32491Y-24375D01*
X31525Y-24375D01*
X31525Y-24359D01*
X31529Y-24354D01*
X31624Y-24124D01*
X31625Y-23876D01*
X31530Y-23646D01*
X31525Y-23641D01*
X31525Y-22051D01*
X31851Y-21725D01*
X33651Y-21725D01*
X35125Y-20251D01*
X35125Y-17748D01*
X34451Y-17075D01*
X34135Y-17075D01*
X34125Y-17070D01*
X33875Y-17070D01*
X33864Y-17075D01*
X31951Y-17075D01*
X31588Y-16711D01*
X31126Y-16250D01*
X31739Y-15637D01*
X32751Y-14578D01*
X33698Y-15525D01*
X38051Y-15525D01*
X38325Y-15251D01*
X38325Y-14551D01*
X38451Y-14425D01*
X39351Y-14425D01*
X39725Y-14051D01*
X39725Y-13225D01*
X40375Y-13225D01*
X40375Y-24375D01*
X40375Y-24375D01*
G37*
G54D32*
X40375Y-24375D02*
X40125Y-24375D01*
X40125Y-21277D01*
X39954Y-20863D01*
X39638Y-20546D01*
X39224Y-20375D01*
X38777Y-20374D01*
X38363Y-20545D01*
X38046Y-20861D01*
X37875Y-21275D01*
X37874Y-21722D01*
X38045Y-22136D01*
X38361Y-22453D01*
X38775Y-22624D01*
X39222Y-22625D01*
X39636Y-22454D01*
X39953Y-22138D01*
X40124Y-21724D01*
X40125Y-21277D01*
X40125Y-24375D01*
X39438Y-24375D01*
X39487Y-24326D01*
X39574Y-24114D01*
X39575Y-23886D01*
X39487Y-23674D01*
X39326Y-23512D01*
X39114Y-23425D01*
X38886Y-23424D01*
X38674Y-23512D01*
X38512Y-23673D01*
X38425Y-23885D01*
X38424Y-24113D01*
X38512Y-24325D01*
X38561Y-24375D01*
X37509Y-24375D01*
X37529Y-24354D01*
X37624Y-24124D01*
X37625Y-23876D01*
X37530Y-23646D01*
X37354Y-23470D01*
X37346Y-23466D01*
X37487Y-23326D01*
X37574Y-23114D01*
X37575Y-22886D01*
X37487Y-22674D01*
X37326Y-22512D01*
X37114Y-22425D01*
X36886Y-22424D01*
X36674Y-22512D01*
X36512Y-22673D01*
X36425Y-22885D01*
X36424Y-23113D01*
X36512Y-23325D01*
X36653Y-23466D01*
X36646Y-23469D01*
X36470Y-23645D01*
X36375Y-23875D01*
X36374Y-24123D01*
X36469Y-24353D01*
X36491Y-24375D01*
X35509Y-24375D01*
X35529Y-24354D01*
X35624Y-24124D01*
X35625Y-23876D01*
X35530Y-23646D01*
X35354Y-23470D01*
X35346Y-23466D01*
X35487Y-23326D01*
X35574Y-23114D01*
X35575Y-22886D01*
X35487Y-22674D01*
X35326Y-22512D01*
X35114Y-22425D01*
X34886Y-22424D01*
X34674Y-22512D01*
X34512Y-22673D01*
X34425Y-22885D01*
X34424Y-23113D01*
X34512Y-23325D01*
X34653Y-23466D01*
X34646Y-23469D01*
X34470Y-23645D01*
X34375Y-23875D01*
X34374Y-24123D01*
X34469Y-24353D01*
X34491Y-24375D01*
X33509Y-24375D01*
X33529Y-24354D01*
X33624Y-24124D01*
X33625Y-23876D01*
X33530Y-23646D01*
X33354Y-23470D01*
X33346Y-23466D01*
X33487Y-23326D01*
X33574Y-23114D01*
X33575Y-22886D01*
X33487Y-22674D01*
X33326Y-22512D01*
X33114Y-22425D01*
X32886Y-22424D01*
X32674Y-22512D01*
X32512Y-22673D01*
X32425Y-22885D01*
X32424Y-23113D01*
X32512Y-23325D01*
X32653Y-23466D01*
X32646Y-23469D01*
X32470Y-23645D01*
X32375Y-23875D01*
X32374Y-24123D01*
X32469Y-24353D01*
X32491Y-24375D01*
X31525Y-24375D01*
X31525Y-24359D01*
X31529Y-24354D01*
X31624Y-24124D01*
X31625Y-23876D01*
X31530Y-23646D01*
X31525Y-23641D01*
X31525Y-22051D01*
X31851Y-21725D01*
X33651Y-21725D01*
X35125Y-20251D01*
X35125Y-17748D01*
X34451Y-17075D01*
X34135Y-17075D01*
X34125Y-17070D01*
X33875Y-17070D01*
X33864Y-17075D01*
X31951Y-17075D01*
X31588Y-16711D01*
X31126Y-16250D01*
X31739Y-15637D01*
X32751Y-14578D01*
X33698Y-15525D01*
X38051Y-15525D01*
X38325Y-15251D01*
X38325Y-14551D01*
X38451Y-14425D01*
X39351Y-14425D01*
X39725Y-14051D01*
X39725Y-13225D01*
X40375Y-13225D01*
X40375Y-24375D01*
G54D10*
G36*
X15675Y-15448D02*
X15548Y-15575D01*
X11751Y-15575D01*
X11625Y-15448D01*
X11625Y-12248D01*
X11351Y-11975D01*
X10789Y-11975D01*
X10589Y-12225D01*
X9798Y-12225D01*
X9765Y-12211D01*
X9656Y-12211D01*
X8925Y-12211D01*
X8925Y-11925D01*
X10001Y-11925D01*
X10301Y-11625D01*
X13048Y-11625D01*
X13175Y-11751D01*
X13175Y-13651D01*
X13448Y-13925D01*
X15548Y-13925D01*
X15675Y-14051D01*
X15675Y-15448D01*
X15675Y-15448D01*
G37*
G54D32*
X15675Y-15448D02*
X15548Y-15575D01*
X11751Y-15575D01*
X11625Y-15448D01*
X11625Y-12248D01*
X11351Y-11975D01*
X10789Y-11975D01*
X10589Y-12225D01*
X9798Y-12225D01*
X9765Y-12211D01*
X9656Y-12211D01*
X8925Y-12211D01*
X8925Y-11925D01*
X10001Y-11925D01*
X10301Y-11625D01*
X13048Y-11625D01*
X13175Y-11751D01*
X13175Y-13651D01*
X13448Y-13925D01*
X15548Y-13925D01*
X15675Y-14051D01*
X15675Y-15448D01*
G54D10*
G36*
X15675Y-17048D02*
X15548Y-17175D01*
X14148Y-17175D01*
X13775Y-17548D01*
X13775Y-20747D01*
X15375Y-22547D01*
X15375Y-24000D01*
X15374Y-24123D01*
X15375Y-24124D01*
X15375Y-24375D01*
X14509Y-24375D01*
X14529Y-24354D01*
X14624Y-24124D01*
X14625Y-23876D01*
X14530Y-23646D01*
X14354Y-23470D01*
X14346Y-23466D01*
X14487Y-23326D01*
X14574Y-23114D01*
X14575Y-22886D01*
X14487Y-22674D01*
X14326Y-22512D01*
X14114Y-22425D01*
X13886Y-22424D01*
X13674Y-22512D01*
X13512Y-22673D01*
X13425Y-22885D01*
X13424Y-23113D01*
X13512Y-23325D01*
X13653Y-23466D01*
X13646Y-23469D01*
X13470Y-23645D01*
X13375Y-23875D01*
X13374Y-24123D01*
X13469Y-24353D01*
X13491Y-24375D01*
X12509Y-24375D01*
X12529Y-24354D01*
X12624Y-24124D01*
X12625Y-23876D01*
X12530Y-23646D01*
X12354Y-23470D01*
X12346Y-23466D01*
X12487Y-23326D01*
X12574Y-23114D01*
X12575Y-22886D01*
X12487Y-22674D01*
X12326Y-22512D01*
X12114Y-22425D01*
X11886Y-22424D01*
X11674Y-22512D01*
X11512Y-22673D01*
X11425Y-22885D01*
X11424Y-23113D01*
X11512Y-23325D01*
X11653Y-23466D01*
X11646Y-23469D01*
X11470Y-23645D01*
X11375Y-23875D01*
X11374Y-24123D01*
X11469Y-24353D01*
X11491Y-24375D01*
X10509Y-24375D01*
X10529Y-24354D01*
X10624Y-24124D01*
X10625Y-23876D01*
X10530Y-23646D01*
X10354Y-23470D01*
X10346Y-23466D01*
X10487Y-23326D01*
X10574Y-23114D01*
X10575Y-22886D01*
X10487Y-22674D01*
X10326Y-22512D01*
X10114Y-22425D01*
X9886Y-22424D01*
X9674Y-22512D01*
X9512Y-22673D01*
X9425Y-22885D01*
X9424Y-23113D01*
X9512Y-23325D01*
X9653Y-23466D01*
X9646Y-23469D01*
X9470Y-23645D01*
X9375Y-23875D01*
X9374Y-24123D01*
X9469Y-24353D01*
X9491Y-24375D01*
X8438Y-24375D01*
X8487Y-24326D01*
X8574Y-24114D01*
X8575Y-23886D01*
X8487Y-23674D01*
X8326Y-23512D01*
X8114Y-23425D01*
X7886Y-23424D01*
X7674Y-23512D01*
X7512Y-23673D01*
X7425Y-23885D01*
X7424Y-24113D01*
X7512Y-24325D01*
X7561Y-24375D01*
X6625Y-24375D01*
X6625Y-21251D01*
X7351Y-20525D01*
X7413Y-20525D01*
X7363Y-20545D01*
X7046Y-20861D01*
X6875Y-21275D01*
X6874Y-21722D01*
X7045Y-22136D01*
X7361Y-22453D01*
X7775Y-22624D01*
X8222Y-22625D01*
X8636Y-22454D01*
X8953Y-22138D01*
X9124Y-21724D01*
X9125Y-21277D01*
X8954Y-20863D01*
X8638Y-20546D01*
X8585Y-20525D01*
X9950Y-20525D01*
X10009Y-20583D01*
X10327Y-20715D01*
X10671Y-20716D01*
X10989Y-20584D01*
X11049Y-20525D01*
X11651Y-20525D01*
X12825Y-19351D01*
X12825Y-16151D01*
X12951Y-16025D01*
X15548Y-16025D01*
X15675Y-16151D01*
X15675Y-17048D01*
X15675Y-17048D01*
G37*
G54D32*
X15675Y-17048D02*
X15548Y-17175D01*
X14148Y-17175D01*
X13775Y-17548D01*
X13775Y-20747D01*
X15375Y-22547D01*
X15375Y-24000D01*
X15374Y-24123D01*
X15375Y-24124D01*
X15375Y-24375D01*
X14509Y-24375D01*
X14529Y-24354D01*
X14624Y-24124D01*
X14625Y-23876D01*
X14530Y-23646D01*
X14354Y-23470D01*
X14346Y-23466D01*
X14487Y-23326D01*
X14574Y-23114D01*
X14575Y-22886D01*
X14487Y-22674D01*
X14326Y-22512D01*
X14114Y-22425D01*
X13886Y-22424D01*
X13674Y-22512D01*
X13512Y-22673D01*
X13425Y-22885D01*
X13424Y-23113D01*
X13512Y-23325D01*
X13653Y-23466D01*
X13646Y-23469D01*
X13470Y-23645D01*
X13375Y-23875D01*
X13374Y-24123D01*
X13469Y-24353D01*
X13491Y-24375D01*
X12509Y-24375D01*
X12529Y-24354D01*
X12624Y-24124D01*
X12625Y-23876D01*
X12530Y-23646D01*
X12354Y-23470D01*
X12346Y-23466D01*
X12487Y-23326D01*
X12574Y-23114D01*
X12575Y-22886D01*
X12487Y-22674D01*
X12326Y-22512D01*
X12114Y-22425D01*
X11886Y-22424D01*
X11674Y-22512D01*
X11512Y-22673D01*
X11425Y-22885D01*
X11424Y-23113D01*
X11512Y-23325D01*
X11653Y-23466D01*
X11646Y-23469D01*
X11470Y-23645D01*
X11375Y-23875D01*
X11374Y-24123D01*
X11469Y-24353D01*
X11491Y-24375D01*
X10509Y-24375D01*
X10529Y-24354D01*
X10624Y-24124D01*
X10625Y-23876D01*
X10530Y-23646D01*
X10354Y-23470D01*
X10346Y-23466D01*
X10487Y-23326D01*
X10574Y-23114D01*
X10575Y-22886D01*
X10487Y-22674D01*
X10326Y-22512D01*
X10114Y-22425D01*
X9886Y-22424D01*
X9674Y-22512D01*
X9512Y-22673D01*
X9425Y-22885D01*
X9424Y-23113D01*
X9512Y-23325D01*
X9653Y-23466D01*
X9646Y-23469D01*
X9470Y-23645D01*
X9375Y-23875D01*
X9374Y-24123D01*
X9469Y-24353D01*
X9491Y-24375D01*
X8438Y-24375D01*
X8487Y-24326D01*
X8574Y-24114D01*
X8575Y-23886D01*
X8487Y-23674D01*
X8326Y-23512D01*
X8114Y-23425D01*
X7886Y-23424D01*
X7674Y-23512D01*
X7512Y-23673D01*
X7425Y-23885D01*
X7424Y-24113D01*
X7512Y-24325D01*
X7561Y-24375D01*
X6625Y-24375D01*
X6625Y-21251D01*
X7351Y-20525D01*
X7413Y-20525D01*
X7363Y-20545D01*
X7046Y-20861D01*
X6875Y-21275D01*
X6874Y-21722D01*
X7045Y-22136D01*
X7361Y-22453D01*
X7775Y-22624D01*
X8222Y-22625D01*
X8636Y-22454D01*
X8953Y-22138D01*
X9124Y-21724D01*
X9125Y-21277D01*
X8954Y-20863D01*
X8638Y-20546D01*
X8585Y-20525D01*
X9950Y-20525D01*
X10009Y-20583D01*
X10327Y-20715D01*
X10671Y-20716D01*
X10989Y-20584D01*
X11049Y-20525D01*
X11651Y-20525D01*
X12825Y-19351D01*
X12825Y-16151D01*
X12951Y-16025D01*
X15548Y-16025D01*
X15675Y-16151D01*
X15675Y-17048D01*
M02*
