M48
INCH,TZ
T1C0.025
T2C0.035
T3C0.039
T4C0.040
T5C0.040
T6C0.070
T7C0.079
T8C0.087
T9C0.129
%
G90
G05
T1
X6850Y-7750
X8100Y-11200
X8200Y-14700
X10900Y-13700
X11100Y-12500
X11100Y-13000
X11800Y-12750
X14150Y-12750
X14500Y-12000
X14750Y-12550
X14750Y-13000
X17650Y-17450
X18100Y-19350
X19900Y-15500
X20050Y-21100
X21500Y-12100
X22200Y-15000
X23400Y-13900
X23800Y-17300
X24350Y-17250
X24600Y-12600
X25200Y-12800
X25200Y-17150
X26500Y-23400
X26600Y-18900
X26650Y-14200
X27600Y-18000
X27850Y-18400
X29700Y-19000
X31650Y-16150
X31700Y-12900
X32700Y-19300
X32750Y-15100
X33800Y-14900
X36900Y-11600
T2
X8235Y-12034
X8235Y-13766
T3
X16620Y-13264
X16620Y-15036
X19180Y-13264
X19180Y-15036
X33220Y-12114
X33220Y-13886
X35780Y-12114
X35780Y-13886
T4
X7000Y-24000
X8000Y-24000
X9000Y-7000
X9000Y-24000
X10000Y-7000
X10000Y-23000
X10000Y-24000
X11000Y-7000
X11000Y-23000
X11000Y-24000
X12000Y-7000
X12000Y-23000
X12000Y-24000
X13000Y-7000
X13000Y-23000
X13000Y-24000
X14000Y-7000
X14000Y-23000
X14000Y-24000
X15000Y-7000
X15000Y-23000
X15000Y-24000
X16000Y-7000
X16000Y-24000
X17000Y-7000
X17000Y-24000
X18000Y-7000
X18000Y-24000
X19000Y-7000
X19000Y-24000
X20000Y-7000
X20000Y-24000
X21000Y-7000
X21000Y-24000
X22000Y-7000
X22000Y-24000
X23000Y-7000
X23000Y-24000
X24000Y-7000
X24000Y-24000
X25000Y-7000
X25000Y-24000
X26000Y-7000
X26000Y-24000
X27000Y-7000
X27000Y-24000
X28000Y-7000
X28000Y-24000
X29000Y-7000
X29000Y-24000
X30000Y-7000
X30000Y-24000
X31000Y-7000
X31000Y-24000
X32000Y-7000
X32000Y-23000
X32000Y-24000
X33000Y-7000
X33000Y-23000
X33000Y-24000
X34000Y-7000
X34000Y-23000
X34000Y-24000
X35000Y-7000
X35000Y-23000
X35000Y-24000
X36000Y-7000
X36000Y-23000
X36000Y-24000
X37000Y-7000
X37000Y-23000
X37000Y-24000
X38000Y-7000
X38000Y-12500
X38000Y-13500
X38000Y-24000
X39000Y-12500
X39000Y-13500
X39000Y-24000
X40000Y-12500
X40000Y-13500
X40000Y-24000
T5
X34000Y-16700
X34000Y-17700
X34000Y-18700
T6
X14800Y-15050
X14800Y-16630
X14800Y-18200
T7
X9319Y-18000
X10500Y-19850
X11681Y-18000
T8
X7547Y-18000
T9
X8000Y-9500
X8000Y-21500
X39000Y-9500
X39000Y-21500
T0
M30
